<svg width="306" height="424" viewBox="0 0 306 424" fill="none" xmlns="http://www.w3.org/2000/svg">
<rect x="206.023" y="239.858" width="99.9768" height="164" fill="url(#paint0_linear_153_453)" fill-opacity="0.8"/>
<path d="M206.023 223.858H291.458L306 239.858H206.023L206.023 223.858Z" fill="#0DA19C" fill-opacity="0.61"/>
<path d="M257.966 312.518C268.406 312.518 274.586 307.418 274.586 299.378C274.586 293.918 271.226 290.378 266.246 289.298C270.506 287.798 273.326 284.798 273.326 279.998C273.326 273.278 267.806 268.358 258.386 268.358C248.606 268.358 243.026 274.118 242.546 281.978H251.126C251.606 277.958 254.126 275.498 258.206 275.498C262.166 275.498 264.146 277.778 264.146 280.838C264.146 284.498 262.106 286.538 257.606 286.538H254.486V293.018H257.846C262.466 293.018 264.746 295.118 264.746 299.198C264.746 303.038 262.466 305.378 257.606 305.378C252.446 305.378 250.226 302.378 249.866 298.238H241.106C241.466 306.938 247.046 312.518 257.966 312.518Z" fill="white"/>
<rect x="0.301743" y="212.858" width="99.9768" height="164" fill="url(#paint1_linear_153_453)"/>
<path d="M13.9349 196.858H100.279V212.858H0.301743L13.9349 196.858Z" fill="#0DA19C" fill-opacity="0.65"/>
<path d="M30.86 307.858H74.06V298.018H51.82L62.62 287.458C69.26 281.058 73.66 274.818 73.66 267.218C73.66 256.898 66.46 249.858 53.82 249.858C41.02 249.858 33.02 257.058 32.38 270.258H44.14C45.02 262.738 48.22 259.778 53.26 259.778C58.22 259.778 60.86 262.818 60.86 267.538C60.86 272.738 57.34 277.778 51.82 283.618L30.86 305.778V307.858Z" fill="white"/>
<rect x="100.279" y="177.858" width="105.745" height="246" fill="url(#paint2_linear_153_453)"/>
<path d="M115.66 161.858H190.642L206.023 177.858H100.279L115.66 161.858Z" fill="#136562"/>
<path d="M152.362 296.858H168.562V225.358H154.362L137.862 237.058V250.858L152.362 241.358V296.858Z" fill="white"/>
<path d="M151.084 1.24706C152.355 0.480096 153.946 0.480097 155.217 1.24706L161.466 5.01776L167.849 8.83309C169.06 9.55664 169.8 10.8641 169.797 12.2744L169.782 20L169.797 27.7256C169.8 29.1359 169.06 30.4434 167.849 31.1669L161.466 34.9822L155.217 38.7529C153.946 39.5199 152.355 39.5199 151.084 38.7529L144.835 34.9822L138.453 31.1669C137.242 30.4434 136.502 29.1359 136.505 27.7256L136.52 20L136.505 12.2744C136.502 10.8641 137.242 9.55664 138.453 8.83309L144.835 5.01776L151.084 1.24706Z" fill="#FFB800"/>
<g clip-path="url(#clip0_153_453)">
<path d="M153.151 15L156.355 20L160.361 16.6667L158.759 25H147.543L145.941 16.6667L149.946 20L153.151 15Z" fill="white" stroke="white" stroke-width="1.5" stroke-linecap="round" stroke-linejoin="round"/>
</g>
<path d="M44.3783 33.2471C45.6493 32.4801 47.2405 32.4801 48.5115 33.2471L54.7603 37.0178L61.1431 40.8331C62.3536 41.5566 63.0936 42.8641 63.0909 44.2744L63.0756 52L63.0909 59.7256C63.0936 61.1359 62.3536 62.4434 61.1431 63.1669L54.7603 66.9822L48.5115 70.7529C47.2405 71.5199 45.6493 71.5199 44.3783 70.7529L38.1295 66.9822L31.7466 63.1669C30.5361 62.4434 29.7961 61.1359 29.7989 59.7256L29.8141 52L29.7989 44.2744C29.7961 42.8641 30.5361 41.5566 31.7466 40.8331L38.1295 37.0178L44.3783 33.2471Z" fill="#8760F8"/>
<g clip-path="url(#clip1_153_453)">
<path d="M46.4449 47L49.6493 52L53.6547 48.6667L52.0525 57H40.8372L39.235 48.6667L43.2405 52L46.4449 47Z" fill="white" stroke="white" stroke-width="1.5" stroke-linecap="round" stroke-linejoin="round"/>
</g>
<path d="M251.061 64.2471C252.332 63.4801 253.923 63.4801 255.194 64.2471L261.443 68.0178L267.826 71.8331C269.036 72.5566 269.776 73.8641 269.774 75.2744L269.758 83L269.774 90.7256C269.776 92.1359 269.036 93.4434 267.826 94.1669L261.443 97.9822L255.194 101.753C253.923 102.52 252.332 102.52 251.061 101.753L244.812 97.9822L238.429 94.1669C237.219 93.4434 236.479 92.1359 236.482 90.7256L236.497 83L236.482 75.2744C236.479 73.8641 237.219 72.5566 238.429 71.8331L244.812 68.0178L251.061 64.2471Z" fill="#00FFB3"/>
<g clip-path="url(#clip2_153_453)">
<path d="M253.128 78L256.332 83L260.338 79.6667L258.735 88H247.52L245.918 79.6667L249.923 83L253.128 78Z" fill="white" stroke="white" stroke-width="1.5" stroke-linecap="round" stroke-linejoin="round"/>
</g>
<defs>
<linearGradient id="paint0_linear_153_453" x1="256.012" y1="239.858" x2="256.012" y2="403.858" gradientUnits="userSpaceOnUse">
<stop stop-color="#0DA19C"/>
<stop offset="1" stop-color="white"/>
</linearGradient>
<linearGradient id="paint1_linear_153_453" x1="50.2901" y1="212.858" x2="50.2901" y2="376.858" gradientUnits="userSpaceOnUse">
<stop stop-color="#0DA19C"/>
<stop offset="1" stop-color="#EEEEEE"/>
</linearGradient>
<linearGradient id="paint2_linear_153_453" x1="153.151" y1="177.858" x2="153.151" y2="350.858" gradientUnits="userSpaceOnUse">
<stop stop-color="#0DA19C"/>
<stop offset="1" stop-color="#CBCBCB"/>
</linearGradient>
<clipPath id="clip0_153_453">
<rect width="19.2263" height="20" fill="white" transform="translate(143.538 10)"/>
</clipPath>
<clipPath id="clip1_153_453">
<rect width="19.2263" height="20" fill="white" transform="translate(36.8317 42)"/>
</clipPath>
<clipPath id="clip2_153_453">
<rect width="19.2263" height="20" fill="white" transform="translate(243.515 73)"/>
</clipPath>
</defs>
</svg>
